<svg width="16" height="14" viewBox="0 0 16 14" fill="none" xmlns="http://www.w3.org/2000/svg">
<path d="M15.1006 5.39005L15.1256 5.39551H4.41912L7.78485 2.02237C7.94966 1.85769 8.04007 1.6346 8.04007 1.40045C8.04007 1.16631 7.94966 0.94478 7.78485 0.779707L7.26114 0.25574C7.09646 0.0910568 6.87701 0 6.64299 0C6.40885 0 6.18927 0.0904065 6.02459 0.255089L0.255093 6.02406C0.0897596 6.1894 -0.000646921 6.40962 3.48506e-06 6.6439C-0.000646921 6.87948 0.0897596 7.09984 0.255093 7.26491L6.02459 13.0344C6.18927 13.199 6.40872 13.2895 6.64299 13.2895C6.87701 13.2895 7.09646 13.1988 7.26114 13.0344L7.78485 12.5104C7.94966 12.346 8.04007 12.1264 8.04007 11.8923C8.04007 11.6583 7.94966 11.4503 7.78485 11.2857L4.38114 7.89372H15.1126C15.5948 7.89372 16 7.47811 16 6.99616V6.25509C16 5.77314 15.5828 5.39005 15.1006 5.39005Z" fill="#4A5EA8"/>
</svg>
