<svg width="24" height="24" viewBox="0 0 24 24" fill="none" xmlns="http://www.w3.org/2000/svg">
<mask id="path-1-outside-1" maskUnits="userSpaceOnUse" x="0" y="0" width="24" height="24" fill="black">
<rect fill="white" width="24" height="24"/>
<path d="M20.7979 2.09771V5.40434C17.1551 0.542001 10.2623 -0.445293 5.40227 3.19916C1.63116 6.02709 0.0802621 10.9447 1.54634 15.4258C1.59555 15.5768 1.73623 15.6789 1.89495 15.6789C1.93372 15.6789 1.97226 15.6726 2.00896 15.6602C2.20123 15.5971 2.30607 15.3901 2.2432 15.1977C1.90604 14.1654 1.73481 13.086 1.73586 12C1.73476 6.32856 6.3293 1.73005 11.998 1.72899C15.3579 1.72835 18.5054 3.37291 20.4247 6.13198H16.3989V6.86548H21.531V2.09771H20.7979Z"/>
<path d="M22.4537 8.57418C22.3854 8.38351 22.1754 8.28435 21.9849 8.3527C21.8018 8.4184 21.7018 8.61571 21.7572 8.8023C23.522 14.1932 20.5846 19.9947 15.1962 21.7603C10.8885 23.1718 6.16534 21.5899 3.57534 17.868H7.60109V17.1345H2.46901V21.9023H3.20217V18.5957C6.84489 23.458 13.7377 24.4453 18.5977 20.8008C22.3689 17.9729 23.9197 13.0553 22.4537 8.57418Z"/>
<path d="M12 11.6332C10.5828 11.6332 9.43397 10.4839 9.43397 9.06599C9.43397 7.64813 10.5828 6.49873 12 6.49873C13.4165 6.50034 14.5644 7.64882 14.566 9.06599H15.2992C15.2968 7.38613 14.0351 5.97533 12.3666 5.78687V4.66497H11.6334V5.78687C9.82328 5.99518 8.52463 7.63218 8.73285 9.44319C8.92393 11.1053 10.3278 12.3615 12 12.3668C13.4172 12.3668 14.566 13.5161 14.566 14.934C14.566 16.3519 13.4172 17.5013 12 17.5013C10.5828 17.5013 9.43397 16.3519 9.43397 14.934H8.70082C8.70325 16.6139 9.96496 18.0247 11.6334 18.2131V19.335H12.3666V18.2131C14.1767 18.0048 15.4754 16.3678 15.2672 14.5568C15.076 12.8947 13.6722 11.6385 12 11.6332Z"/>
</mask>
<path d="M20.7979 2.09771V5.40434C17.1551 0.542001 10.2623 -0.445293 5.40227 3.19916C1.63116 6.02709 0.0802621 10.9447 1.54634 15.4258C1.59555 15.5768 1.73623 15.6789 1.89495 15.6789C1.93372 15.6789 1.97226 15.6726 2.00896 15.6602C2.20123 15.5971 2.30607 15.3901 2.2432 15.1977C1.90604 14.1654 1.73481 13.086 1.73586 12C1.73476 6.32856 6.3293 1.73005 11.998 1.72899C15.3579 1.72835 18.5054 3.37291 20.4247 6.13198H16.3989V6.86548H21.531V2.09771H20.7979Z" fill="#2379C8"/>
<path d="M22.4537 8.57418C22.3854 8.38351 22.1754 8.28435 21.9849 8.3527C21.8018 8.4184 21.7018 8.61571 21.7572 8.8023C23.522 14.1932 20.5846 19.9947 15.1962 21.7603C10.8885 23.1718 6.16534 21.5899 3.57534 17.868H7.60109V17.1345H2.46901V21.9023H3.20217V18.5957C6.84489 23.458 13.7377 24.4453 18.5977 20.8008C22.3689 17.9729 23.9197 13.0553 22.4537 8.57418Z" fill="#2379C8"/>
<path d="M12 11.6332C10.5828 11.6332 9.43397 10.4839 9.43397 9.06599C9.43397 7.64813 10.5828 6.49873 12 6.49873C13.4165 6.50034 14.5644 7.64882 14.566 9.06599H15.2992C15.2968 7.38613 14.0351 5.97533 12.3666 5.78687V4.66497H11.6334V5.78687C9.82328 5.99518 8.52463 7.63218 8.73285 9.44319C8.92393 11.1053 10.3278 12.3615 12 12.3668C13.4172 12.3668 14.566 13.5161 14.566 14.934C14.566 16.3519 13.4172 17.5013 12 17.5013C10.5828 17.5013 9.43397 16.3519 9.43397 14.934H8.70082C8.70325 16.6139 9.96496 18.0247 11.6334 18.2131V19.335H12.3666V18.2131C14.1767 18.0048 15.4754 16.3678 15.2672 14.5568C15.076 12.8947 13.6722 11.6385 12 11.6332Z" fill="#2379C8"/>
<path d="M20.7979 2.09771V1.84771H20.5479V2.09771H20.7979ZM20.7979 5.40434L20.5978 5.55424L21.0479 6.15501V5.40434H20.7979ZM5.40227 3.19916L5.25228 2.99915L5.25228 2.99915L5.40227 3.19916ZM1.54634 15.4258L1.78403 15.3483L1.78395 15.3481L1.54634 15.4258ZM1.89495 15.6789L1.89525 15.4289H1.89488L1.89495 15.6789ZM2.00896 15.6602L1.93107 15.4226L1.92881 15.4234L2.00896 15.6602ZM2.2432 15.1977L2.00556 15.2753L2.00557 15.2754L2.2432 15.1977ZM1.73586 12L1.98586 12.0002L1.98586 12L1.73586 12ZM11.998 1.72899L11.9981 1.97899H11.9981L11.998 1.72899ZM20.4247 6.13198V6.38198H20.9031L20.6299 5.98922L20.4247 6.13198ZM16.3989 6.13198V5.88198H16.1489V6.13198H16.3989ZM16.3989 6.86548H16.1489V7.11548H16.3989V6.86548ZM21.531 6.86548V7.11548H21.781V6.86548H21.531ZM21.531 2.09771H21.781V1.84771H21.531V2.09771ZM22.4537 8.57418L22.6914 8.49641L22.689 8.48984L22.4537 8.57418ZM21.9849 8.3527L21.9005 8.11738L21.9004 8.11739L21.9849 8.3527ZM21.7572 8.8023L21.5174 8.87343L21.5196 8.88008L21.7572 8.8023ZM15.1962 21.7603L15.1184 21.5227H15.1184L15.1962 21.7603ZM3.57534 17.868V17.618H3.09679L3.37014 18.0108L3.57534 17.868ZM7.60109 17.868V18.118H7.85109V17.868H7.60109ZM7.60109 17.1345H7.85109V16.8845H7.60109V17.1345ZM2.46901 17.1345V16.8845H2.21901V17.1345H2.46901ZM2.46901 21.9023H2.21901V22.1523H2.46901V21.9023ZM3.20217 21.9023V22.1523H3.45217V21.9023H3.20217ZM3.20217 18.5957L3.40225 18.4458L2.95217 17.845V18.5957H3.20217ZM18.5977 20.8008L18.4477 20.6008H18.4477L18.5977 20.8008ZM12 11.6332L12.0008 11.3832H12V11.6332ZM12 6.49873L12.0003 6.24873H12V6.49873ZM14.566 9.06599L14.316 9.06627L14.3163 9.31599H14.566V9.06599ZM15.2992 9.06599V9.31599H15.5496L15.5492 9.06563L15.2992 9.06599ZM12.3666 5.78687H12.1166V6.01022L12.3385 6.03529L12.3666 5.78687ZM12.3666 4.66497H12.6166V4.41497H12.3666V4.66497ZM11.6334 4.66497V4.41497H11.3834V4.66497H11.6334ZM11.6334 5.78687L11.662 6.03523L11.8834 6.00975V5.78687H11.6334ZM8.73285 9.44319L8.98121 9.41464V9.41464L8.73285 9.44319ZM12 12.3668L11.9992 12.6168H12V12.3668ZM9.43397 14.934H9.68397V14.684H9.43397V14.934ZM8.70082 14.934V14.684H8.45046L8.45082 14.9344L8.70082 14.934ZM11.6334 18.2131H11.8834V17.9898L11.6615 17.9647L11.6334 18.2131ZM11.6334 19.335H11.3834V19.585H11.6334V19.335ZM12.3666 19.335V19.585H12.6166V19.335H12.3666ZM12.3666 18.2131L12.338 17.9648L12.1166 17.9903V18.2131H12.3666ZM15.2672 14.5568L15.5155 14.5283V14.5282L15.2672 14.5568ZM20.5479 2.09771V5.40434H21.0479V2.09771H20.5479ZM20.9979 5.25445C17.2724 0.281596 10.2228 -0.728184 5.25228 2.99915L5.55225 3.39917C10.3018 -0.162402 17.0378 0.802406 20.5978 5.55424L20.9979 5.25445ZM5.25228 2.99915C1.39546 5.89136 -0.190637 10.9207 1.30873 15.5036L1.78395 15.3481C0.351161 10.9687 1.86686 6.16282 5.55226 3.39917L5.25228 2.99915ZM1.30865 15.5033C1.39138 15.7571 1.62795 15.929 1.89503 15.9289L1.89488 15.4289C1.8445 15.4289 1.79972 15.3965 1.78403 15.3483L1.30865 15.5033ZM1.89466 15.9289C1.9608 15.929 2.02651 15.9182 2.08911 15.897L1.92881 15.4234C1.918 15.427 1.90664 15.4289 1.89525 15.4289L1.89466 15.9289ZM2.08684 15.8977C2.41035 15.7917 2.58652 15.4435 2.48084 15.1201L2.00557 15.2754C2.02562 15.3367 1.99211 15.4026 1.93108 15.4226L2.08684 15.8977ZM2.48085 15.1201C2.1519 14.1129 1.98483 13.0598 1.98586 12.0002L1.48586 11.9998C1.48478 13.1122 1.66019 14.2179 2.00556 15.2753L2.48085 15.1201ZM1.98586 12C1.98479 6.46647 6.46753 1.98002 11.9981 1.97899L11.998 1.47899C6.19106 1.48007 1.48473 6.19065 1.48586 12L1.98586 12ZM11.9981 1.97899C15.2761 1.97837 18.3469 3.58284 20.2194 6.27474L20.6299 5.98922C18.6639 3.16297 15.4397 1.47833 11.998 1.47899L11.9981 1.97899ZM20.4247 5.88198H16.3989V6.38198H20.4247V5.88198ZM16.1489 6.13198V6.86548H16.6489V6.13198H16.1489ZM16.3989 7.11548H21.531V6.61548H16.3989V7.11548ZM21.781 6.86548V2.09771H21.281V6.86548H21.781ZM21.531 1.84771H20.7979V2.34771H21.531V1.84771ZM22.689 8.48984C22.5741 8.16925 22.2211 8.00238 21.9005 8.11738L22.0693 8.58803C22.1298 8.56632 22.1966 8.59778 22.2183 8.65851L22.689 8.48984ZM21.9004 8.11739C21.5924 8.2279 21.4245 8.55974 21.5175 8.8734L21.9969 8.73119C21.9792 8.67169 22.0111 8.6089 22.0693 8.58802L21.9004 8.11739ZM21.5196 8.88008C23.2415 14.1398 20.3754 19.8001 15.1184 21.5227L15.2741 21.9978C20.7937 20.1892 23.8025 14.2465 21.9948 8.72452L21.5196 8.88008ZM15.1184 21.5227C10.9156 22.8998 6.3075 21.3565 3.78055 17.7252L3.37014 18.0108C6.02319 21.8233 10.8614 23.4438 15.2741 21.9978L15.1184 21.5227ZM3.57534 18.118H7.60109V17.618H3.57534V18.118ZM7.85109 17.868V17.1345H7.35109V17.868H7.85109ZM7.60109 16.8845H2.46901V17.3845H7.60109V16.8845ZM2.21901 17.1345V21.9023H2.71901V17.1345H2.21901ZM2.46901 22.1523H3.20217V21.6523H2.46901V22.1523ZM3.45217 21.9023V18.5957H2.95217V21.9023H3.45217ZM3.00209 18.7455C6.7276 23.7184 13.7772 24.7282 18.7477 21.0009L18.4477 20.6008C13.6983 24.1624 6.96217 23.1976 3.40225 18.4458L3.00209 18.7455ZM18.7477 21.0009C22.6046 18.1086 24.1906 13.0793 22.6913 8.49644L22.2161 8.65191C23.6488 13.0313 22.1332 17.8372 18.4477 20.6008L18.7477 21.0009ZM12 11.3832C10.721 11.3832 9.68397 10.3459 9.68397 9.06599H9.18397C9.18397 10.6218 10.4446 11.8832 12 11.8832V11.3832ZM9.68397 9.06599C9.68397 7.78609 10.721 6.74873 12 6.74873V6.24873C10.4446 6.24873 9.18397 7.51017 9.18397 9.06599H9.68397ZM11.9997 6.74873C13.2783 6.75018 14.3146 7.78684 14.316 9.06627L14.816 9.06571C14.8143 7.5108 13.5548 6.25049 12.0003 6.24873L11.9997 6.74873ZM14.566 9.31599H15.2992V8.81599H14.566V9.31599ZM15.5492 9.06563C15.5466 7.25879 14.1895 5.74118 12.3946 5.53845L12.3385 6.03529C13.8806 6.20948 15.047 7.51347 15.0492 9.06635L15.5492 9.06563ZM12.6166 5.78687V4.66497H12.1166V5.78687H12.6166ZM12.3666 4.41497H11.6334V4.91497H12.3666V4.41497ZM11.3834 4.66497V5.78687H11.8834V4.66497H11.3834ZM11.6049 5.53851C9.65743 5.76262 8.26051 7.52368 8.48448 9.47175L8.98121 9.41464C8.78875 7.74067 9.98912 6.22775 11.662 6.03523L11.6049 5.53851ZM8.48448 9.47175C8.69002 11.2596 10.2002 12.6111 11.9992 12.6168L12.0008 12.1168C10.4554 12.1119 9.15783 10.9509 8.98121 9.41464L8.48448 9.47175ZM12 12.6168C13.279 12.6168 14.316 13.6541 14.316 14.934H14.816C14.816 13.3782 13.5554 12.1168 12 12.1168V12.6168ZM14.316 14.934C14.316 16.2139 13.279 17.2513 12 17.2513V17.7513C13.5554 17.7513 14.816 16.4898 14.816 14.934H14.316ZM12 17.2513C10.721 17.2513 9.68397 16.2139 9.68397 14.934H9.18397C9.18397 16.4898 10.4446 17.7513 12 17.7513V17.2513ZM9.43397 14.684H8.70082V15.184H9.43397V14.684ZM8.45082 14.9344C8.45343 16.7412 9.81053 18.2588 11.6054 18.4616L11.6615 17.9647C10.1194 17.7905 8.95306 16.4865 8.95082 14.9336L8.45082 14.9344ZM11.3834 18.2131V19.335H11.8834V18.2131H11.3834ZM11.6334 19.585H12.3666V19.085H11.6334V19.585ZM12.6166 19.335V18.2131H12.1166V19.335H12.6166ZM12.3952 18.4615C14.3426 18.2374 15.7395 16.4763 15.5155 14.5283L15.0188 14.5854C15.2113 16.2593 14.0109 17.7723 12.338 17.9648L12.3952 18.4615ZM15.5155 14.5282C15.3099 12.7403 13.7998 11.3889 12.0008 11.3833L11.9992 11.8832C13.5446 11.8881 14.8421 13.049 15.0188 14.5854L15.5155 14.5282Z" fill="#2379C8" mask="url(#path-1-outside-1)"/>
</svg>
